<svg width="55" height="55" viewBox="0 0 55 55" fill="none" xmlns="http://www.w3.org/2000/svg">
<rect x="0.5" y="0.5" width="54" height="54" rx="4.5" fill="#B69531" fill-opacity="0.33"/>
<rect x="0.5" y="0.5" width="54" height="54" rx="4.5" stroke="#7B5C00"/>
<path d="M24.0612 35.521L21.7695 27.5002" stroke="#7B5C00" stroke-linecap="round"/>
<path d="M19.4779 14.896L14.8945 21.771M35.5195 14.896L40.1029 21.771" stroke="#7B5C00" stroke-linecap="round"/>
<path d="M30.9375 35.521L33.2292 27.5002" stroke="#7B5C00" stroke-linecap="round"/>
<path d="M10.3125 21.771C10.9652 21.771 11.2915 21.771 11.571 21.8543C12.071 22.0033 12.493 22.3418 12.747 22.7976C12.8889 23.0524 12.9597 23.371 13.1013 24.0081L16.4914 39.2637C16.8251 40.7653 16.992 41.5162 17.5404 41.9561C18.0888 42.396 18.8579 42.396 20.3962 42.396H34.6038C36.1421 42.396 36.9112 42.396 37.4596 41.9561C38.008 41.5162 38.1749 40.7653 38.5086 39.2637L41.8987 24.0081C42.0403 23.371 42.1111 23.0524 42.253 22.7976C42.507 22.3418 42.929 22.0033 43.429 21.8543C43.7085 21.771 44.0348 21.771 44.6875 21.771" stroke="#7B5C00" stroke-linecap="round"/>
<path d="M8.01953 21.771H46.9779" stroke="#7B5C00" stroke-linecap="round"/>
</svg>
